<svg width="1366" height="82" viewBox="0 0 1366 82" fill="none" xmlns="http://www.w3.org/2000/svg">
<path fill-rule="evenodd" clip-rule="evenodd" d="M188.423 37.7793L192.133 41.4898C192.309 41.6658 192.309 41.9569 192.133 42.133C192.045 42.2244 191.926 42.2684 191.811 42.2684C191.696 42.2684 191.578 42.221 191.49 42.133L187.779 38.4225C186.635 39.4179 185.142 40.0205 183.51 40.0205C179.922 40.0205 177 37.0988 177 33.5102C177 29.9216 179.918 27 183.51 27C187.099 27 190.02 29.9183 190.02 33.5102C190.02 35.142 189.418 36.635 188.423 37.7793ZM183.507 27.9141C180.423 27.9141 177.911 30.4227 177.911 33.5102C177.911 36.5978 180.423 39.1098 183.507 39.1098C186.594 39.1098 189.103 36.5944 189.103 33.5102C189.103 30.4261 186.594 27.9141 183.507 27.9141Z" fill="#2565C0" fill-opacity="0.437104"/>
<path d="M207.396 40.112C205.837 40.112 204.596 39.692 203.672 38.852L204.106 37.97C204.601 38.39 205.105 38.6887 205.618 38.866C206.131 39.0433 206.729 39.132 207.41 39.132C208.213 39.132 208.829 38.978 209.258 38.67C209.697 38.3527 209.916 37.9093 209.916 37.34C209.916 37.004 209.809 36.7333 209.594 36.528C209.389 36.3133 209.113 36.1453 208.768 36.024C208.432 35.9027 207.979 35.7767 207.41 35.646C206.645 35.478 206.015 35.296 205.52 35.1C205.025 34.904 204.624 34.624 204.316 34.26C204.008 33.8867 203.854 33.4013 203.854 32.804C203.854 32.2347 204.003 31.7353 204.302 31.306C204.601 30.8673 205.021 30.5267 205.562 30.284C206.113 30.0413 206.752 29.92 207.48 29.92C208.171 29.92 208.815 30.0273 209.412 30.242C210.009 30.4567 210.513 30.7693 210.924 31.18L210.476 32.062C210.009 31.6607 209.533 31.3667 209.048 31.18C208.572 30.9933 208.049 30.9 207.48 30.9C206.705 30.9 206.099 31.068 205.66 31.404C205.221 31.7307 205.002 32.1833 205.002 32.762C205.002 33.266 205.193 33.644 205.576 33.896C205.959 34.148 206.547 34.3673 207.34 34.554C208.199 34.7593 208.871 34.9507 209.356 35.128C209.851 35.296 210.261 35.5573 210.588 35.912C210.915 36.2573 211.078 36.7193 211.078 37.298C211.078 37.858 210.929 38.3527 210.63 38.782C210.331 39.202 209.902 39.5287 209.342 39.762C208.791 39.9953 208.143 40.112 207.396 40.112ZM218.709 36.444H213.543C213.552 37.34 213.757 38.0167 214.159 38.474C214.569 38.9313 215.162 39.16 215.937 39.16C216.758 39.16 217.514 38.8847 218.205 38.334L218.583 39.16C218.275 39.4493 217.878 39.678 217.393 39.846C216.917 40.014 216.427 40.098 215.923 40.098C214.821 40.098 213.958 39.776 213.333 39.132C212.707 38.4787 212.395 37.5873 212.395 36.458C212.395 35.7393 212.535 35.1047 212.815 34.554C213.095 33.994 213.487 33.56 213.991 33.252C214.495 32.944 215.069 32.79 215.713 32.79C216.646 32.79 217.379 33.098 217.911 33.714C218.443 34.3207 218.709 35.1607 218.709 36.234V36.444ZM215.727 33.672C215.139 33.672 214.658 33.8493 214.285 34.204C213.921 34.5587 213.687 35.058 213.585 35.702H217.687C217.631 35.0393 217.435 34.5353 217.099 34.19C216.772 33.8447 216.315 33.672 215.727 33.672ZM226.632 32.958V40H225.512V38.726C225.307 39.1647 224.994 39.5053 224.574 39.748C224.163 39.9813 223.683 40.098 223.132 40.098C222.507 40.098 221.956 39.9487 221.48 39.65C221.013 39.3513 220.649 38.9313 220.388 38.39C220.136 37.8393 220.01 37.2 220.01 36.472C220.01 35.744 220.141 35.1047 220.402 34.554C220.663 33.994 221.027 33.56 221.494 33.252C221.97 32.944 222.516 32.79 223.132 32.79C223.683 32.79 224.163 32.9113 224.574 33.154C224.985 33.3967 225.297 33.7373 225.512 34.176V32.958H226.632ZM223.356 39.16C224.047 39.16 224.579 38.9267 224.952 38.46C225.325 37.984 225.512 37.312 225.512 36.444C225.512 35.576 225.325 34.9087 224.952 34.442C224.579 33.9753 224.047 33.742 223.356 33.742C222.665 33.742 222.124 33.9847 221.732 34.47C221.349 34.946 221.158 35.6133 221.158 36.472C221.158 37.3307 221.349 37.9933 221.732 38.46C222.115 38.9267 222.656 39.16 223.356 39.16ZM232.1 32.79C232.334 32.79 232.548 32.818 232.744 32.874L232.716 33.91C232.502 33.8353 232.254 33.798 231.974 33.798C231.293 33.798 230.784 34.0127 230.448 34.442C230.122 34.862 229.958 35.3753 229.958 35.982V40H228.824V34.932C228.824 34.204 228.787 33.546 228.712 32.958H229.79L229.902 34.26C230.08 33.784 230.364 33.42 230.756 33.168C231.148 32.916 231.596 32.79 232.1 32.79ZM236.714 40.098C236.033 40.098 235.435 39.9487 234.922 39.65C234.418 39.3513 234.026 38.9313 233.746 38.39C233.475 37.8393 233.34 37.2 233.34 36.472C233.34 35.744 233.48 35.1047 233.76 34.554C234.04 33.994 234.437 33.56 234.95 33.252C235.473 32.944 236.079 32.79 236.77 32.79C237.246 32.79 237.703 32.874 238.142 33.042C238.59 33.2007 238.959 33.4247 239.248 33.714L238.87 34.554C238.515 34.274 238.17 34.0687 237.834 33.938C237.507 33.8073 237.171 33.742 236.826 33.742C236.107 33.742 235.543 33.9847 235.132 34.47C234.721 34.946 234.516 35.6133 234.516 36.472C234.516 37.3213 234.717 37.984 235.118 38.46C235.529 38.9267 236.098 39.16 236.826 39.16C237.171 39.16 237.507 39.0947 237.834 38.964C238.17 38.8333 238.515 38.628 238.87 38.348L239.248 39.188C238.949 39.468 238.571 39.692 238.114 39.86C237.666 40.0187 237.199 40.098 236.714 40.098ZM244.206 32.79C245.895 32.79 246.74 33.7187 246.74 35.576V40H245.606V35.632C245.606 34.9787 245.475 34.5027 245.214 34.204C244.952 33.896 244.542 33.742 243.982 33.742C243.328 33.742 242.806 33.9427 242.414 34.344C242.022 34.7453 241.826 35.2867 241.826 35.968V40H240.692V29.696H241.826V34.106C242.05 33.6767 242.367 33.35 242.778 33.126C243.198 32.902 243.674 32.79 244.206 32.79Z" fill="#A0BCE4"/>
<g filter="url(#filter0_d_5_3750)">
<path fill-rule="evenodd" clip-rule="evenodd" d="M5 0H1371V70H5V0Z" fill="white"/>
</g>
<path fill-rule="evenodd" clip-rule="evenodd" d="M0 0H60V70H0V0Z" fill="#4C8DEB"/>
<path d="M39.1921 34H20.8079C20.3617 34 20 34.4477 20 35C20 35.5523 20.3617 36 20.8079 36H39.1921C39.6383 36 40 35.5523 40 35C40 34.4477 39.6383 34 39.1921 34Z" fill="#4C8DEB"/>
<path d="M35.8053 29H20.6653C20.2979 29 20 29.4477 20 30C20 30.5523 20.2979 31 20.6653 31H35.8053C36.1727 31 36.4706 30.5523 36.4706 30C36.4706 29.4477 36.1727 29 35.8053 29Z" fill="#4C8DEB"/>
<path d="M32.4184 40H20.5228C20.2341 40 20 40.4477 20 41C20 41.5523 20.2341 42 20.5228 42H32.4184C32.7071 42 32.9412 41.5523 32.9412 41C32.9412 40.4477 32.7071 40 32.4184 40Z" fill="#4C8DEB"/>
<path fill-rule="evenodd" clip-rule="evenodd" d="M30 57C42.1503 57 52 47.1503 52 35C52 22.8497 42.1503 13 30 13C17.8497 13 8 22.8497 8 35C8 47.1503 17.8497 57 30 57Z" fill="white" fill-opacity="0.5"/>
<path fill-rule="evenodd" clip-rule="evenodd" d="M1322 59C1335.25 59 1346 48.2548 1346 35C1346 21.7452 1335.25 11 1322 11C1308.75 11 1298 21.7452 1298 35C1298 48.2548 1308.75 59 1322 59Z" fill="#E8EBF8"/>
<path d="M77.5 25C77.5 22.5147 79.5147 20.5 82 20.5H286C288.485 20.5 290.5 22.5147 290.5 25V45C290.5 47.4853 288.485 49.5 286 49.5H82C79.5147 49.5 77.5 47.4853 77.5 45V25Z" stroke="#4C8DEB" stroke-opacity="0.186481"/>
<path fill-rule="evenodd" clip-rule="evenodd" d="M99.4225 37.7793L103.133 41.4898C103.309 41.6658 103.309 41.9569 103.133 42.133C103.045 42.2244 102.926 42.2684 102.811 42.2684C102.696 42.2684 102.578 42.221 102.49 42.133L98.7793 38.4225C97.635 39.4179 96.142 40.0205 94.5102 40.0205C90.9216 40.0205 88 37.0988 88 33.5102C88 29.9216 90.9183 27 94.5102 27C98.0988 27 101.02 29.9183 101.02 33.5102C101.02 35.142 100.418 36.635 99.4225 37.7793ZM94.5068 27.9141C91.4227 27.9141 88.9107 30.4227 88.9107 33.5102C88.9107 36.5978 91.4227 39.1098 94.5068 39.1098C97.5944 39.1098 100.103 36.5944 100.103 33.5102C100.103 30.4261 97.5944 27.9141 94.5068 27.9141Z" fill="#2565C0" fill-opacity="0.437104"/>
<path d="M118.396 40.112C116.837 40.112 115.596 39.692 114.672 38.852L115.106 37.97C115.601 38.39 116.105 38.6887 116.618 38.866C117.131 39.0433 117.729 39.132 118.41 39.132C119.213 39.132 119.829 38.978 120.258 38.67C120.697 38.3527 120.916 37.9093 120.916 37.34C120.916 37.004 120.809 36.7333 120.594 36.528C120.389 36.3133 120.113 36.1453 119.768 36.024C119.432 35.9027 118.979 35.7767 118.41 35.646C117.645 35.478 117.015 35.296 116.52 35.1C116.025 34.904 115.624 34.624 115.316 34.26C115.008 33.8867 114.854 33.4013 114.854 32.804C114.854 32.2347 115.003 31.7353 115.302 31.306C115.601 30.8673 116.021 30.5267 116.562 30.284C117.113 30.0413 117.752 29.92 118.48 29.92C119.171 29.92 119.815 30.0273 120.412 30.242C121.009 30.4567 121.513 30.7693 121.924 31.18L121.476 32.062C121.009 31.6607 120.533 31.3667 120.048 31.18C119.572 30.9933 119.049 30.9 118.48 30.9C117.705 30.9 117.099 31.068 116.66 31.404C116.221 31.7307 116.002 32.1833 116.002 32.762C116.002 33.266 116.193 33.644 116.576 33.896C116.959 34.148 117.547 34.3673 118.34 34.554C119.199 34.7593 119.871 34.9507 120.356 35.128C120.851 35.296 121.261 35.5573 121.588 35.912C121.915 36.2573 122.078 36.7193 122.078 37.298C122.078 37.858 121.929 38.3527 121.63 38.782C121.331 39.202 120.902 39.5287 120.342 39.762C119.791 39.9953 119.143 40.112 118.396 40.112ZM129.709 36.444H124.543C124.552 37.34 124.757 38.0167 125.159 38.474C125.569 38.9313 126.162 39.16 126.937 39.16C127.758 39.16 128.514 38.8847 129.205 38.334L129.583 39.16C129.275 39.4493 128.878 39.678 128.393 39.846C127.917 40.014 127.427 40.098 126.923 40.098C125.821 40.098 124.958 39.776 124.333 39.132C123.707 38.4787 123.395 37.5873 123.395 36.458C123.395 35.7393 123.535 35.1047 123.815 34.554C124.095 33.994 124.487 33.56 124.991 33.252C125.495 32.944 126.069 32.79 126.713 32.79C127.646 32.79 128.379 33.098 128.911 33.714C129.443 34.3207 129.709 35.1607 129.709 36.234V36.444ZM126.727 33.672C126.139 33.672 125.658 33.8493 125.285 34.204C124.921 34.5587 124.687 35.058 124.585 35.702H128.687C128.631 35.0393 128.435 34.5353 128.099 34.19C127.772 33.8447 127.315 33.672 126.727 33.672ZM137.632 32.958V40H136.512V38.726C136.307 39.1647 135.994 39.5053 135.574 39.748C135.163 39.9813 134.683 40.098 134.132 40.098C133.507 40.098 132.956 39.9487 132.48 39.65C132.013 39.3513 131.649 38.9313 131.388 38.39C131.136 37.8393 131.01 37.2 131.01 36.472C131.01 35.744 131.141 35.1047 131.402 34.554C131.663 33.994 132.027 33.56 132.494 33.252C132.97 32.944 133.516 32.79 134.132 32.79C134.683 32.79 135.163 32.9113 135.574 33.154C135.985 33.3967 136.297 33.7373 136.512 34.176V32.958H137.632ZM134.356 39.16C135.047 39.16 135.579 38.9267 135.952 38.46C136.325 37.984 136.512 37.312 136.512 36.444C136.512 35.576 136.325 34.9087 135.952 34.442C135.579 33.9753 135.047 33.742 134.356 33.742C133.665 33.742 133.124 33.9847 132.732 34.47C132.349 34.946 132.158 35.6133 132.158 36.472C132.158 37.3307 132.349 37.9933 132.732 38.46C133.115 38.9267 133.656 39.16 134.356 39.16ZM143.1 32.79C143.334 32.79 143.548 32.818 143.744 32.874L143.716 33.91C143.502 33.8353 143.254 33.798 142.974 33.798C142.293 33.798 141.784 34.0127 141.448 34.442C141.122 34.862 140.958 35.3753 140.958 35.982V40H139.824V34.932C139.824 34.204 139.787 33.546 139.712 32.958H140.79L140.902 34.26C141.08 33.784 141.364 33.42 141.756 33.168C142.148 32.916 142.596 32.79 143.1 32.79ZM147.714 40.098C147.033 40.098 146.435 39.9487 145.922 39.65C145.418 39.3513 145.026 38.9313 144.746 38.39C144.475 37.8393 144.34 37.2 144.34 36.472C144.34 35.744 144.48 35.1047 144.76 34.554C145.04 33.994 145.437 33.56 145.95 33.252C146.473 32.944 147.079 32.79 147.77 32.79C148.246 32.79 148.703 32.874 149.142 33.042C149.59 33.2007 149.959 33.4247 150.248 33.714L149.87 34.554C149.515 34.274 149.17 34.0687 148.834 33.938C148.507 33.8073 148.171 33.742 147.826 33.742C147.107 33.742 146.543 33.9847 146.132 34.47C145.721 34.946 145.516 35.6133 145.516 36.472C145.516 37.3213 145.717 37.984 146.118 38.46C146.529 38.9267 147.098 39.16 147.826 39.16C148.171 39.16 148.507 39.0947 148.834 38.964C149.17 38.8333 149.515 38.628 149.87 38.348L150.248 39.188C149.949 39.468 149.571 39.692 149.114 39.86C148.666 40.0187 148.199 40.098 147.714 40.098ZM155.206 32.79C156.895 32.79 157.74 33.7187 157.74 35.576V40H156.606V35.632C156.606 34.9787 156.475 34.5027 156.214 34.204C155.952 33.896 155.542 33.742 154.982 33.742C154.328 33.742 153.806 33.9427 153.414 34.344C153.022 34.7453 152.826 35.2867 152.826 35.968V40H151.692V29.696H152.826V34.106C153.05 33.6767 153.367 33.35 153.778 33.126C154.198 32.902 154.674 32.79 155.206 32.79Z" fill="#A0BCE4"/>
<path d="M1259.88 42.6471C1259.88 42.6522 1259.88 42.6573 1259.88 42.6625C1259.88 43.9535 1260.94 45 1262.24 45C1263.53 45 1264.59 43.9535 1264.59 42.6625C1264.59 42.6573 1264.59 42.6522 1264.59 42.6471H1259.88Z" fill="#A0BCE4"/>
<path d="M1269.11 39.7717L1267.01 36.6104C1267.01 35.6426 1267.01 33.278 1267.01 32.6663C1267.01 30.0064 1265.15 27.7892 1262.7 27.2896V26.075C1262.7 25.4813 1262.23 25 1261.65 25C1261.07 25 1260.6 25.4813 1260.6 26.075V27.2896C1258.14 27.7893 1256.29 30.0065 1256.29 32.6663C1256.29 33.7076 1256.29 36.0069 1256.29 36.6104L1254.18 39.7717C1253.96 40.1047 1253.94 40.5357 1254.12 40.8918C1254.31 41.2479 1254.67 41.4706 1255.06 41.4706H1268.23C1268.63 41.4706 1268.99 41.2479 1269.17 40.8918C1269.35 40.5357 1269.33 40.1047 1269.11 39.7717Z" fill="#A0BCE4"/>
<path d="M1262.5 30.5C1262.5 26.634 1265.63 23.5 1269.5 23.5H1275.5C1279.37 23.5 1282.5 26.634 1282.5 30.5C1282.5 34.366 1279.37 37.5 1275.5 37.5H1269.5C1265.63 37.5 1262.5 34.366 1262.5 30.5Z" fill="#36D09E" stroke="white"/>
<path d="M1272.01 32.95V34H1267.62V32.95H1269.18V28.36L1267.73 29.23V28.08L1269.71 26.88H1270.46V32.95H1272.01ZM1277.99 32.95V34H1273.21V33.05L1275.63 30.44C1275.91 30.1267 1276.12 29.84 1276.26 29.58C1276.39 29.32 1276.46 29.0633 1276.46 28.81C1276.46 28.4833 1276.36 28.2367 1276.17 28.07C1275.98 27.9033 1275.71 27.82 1275.36 27.82C1274.73 27.82 1274.09 28.0667 1273.43 28.56L1273 27.62C1273.28 27.3667 1273.64 27.1667 1274.08 27.02C1274.52 26.8667 1274.96 26.79 1275.41 26.79C1276.12 26.79 1276.68 26.9667 1277.1 27.32C1277.52 27.6667 1277.73 28.1367 1277.73 28.73C1277.73 29.1367 1277.64 29.52 1277.46 29.88C1277.28 30.24 1276.99 30.6433 1276.58 31.09L1274.83 32.95H1277.99Z" fill="white"/>
<defs>
<filter id="filter0_d_5_3750" x="-5" y="-8" width="1386" height="90" filterUnits="userSpaceOnUse" color-interpolation-filters="sRGB">
<feFlood flood-opacity="0" result="BackgroundImageFix"/>
<feColorMatrix in="SourceAlpha" type="matrix" values="0 0 0 0 0 0 0 0 0 0 0 0 0 0 0 0 0 0 127 0" result="hardAlpha"/>
<feOffset dy="2"/>
<feGaussianBlur stdDeviation="5"/>
<feColorMatrix type="matrix" values="0 0 0 0 0.299079 0 0 0 0 0.554519 0 0 0 0 0.923416 0 0 0 0.10077 0"/>
<feBlend mode="normal" in2="BackgroundImageFix" result="effect1_dropShadow_5_3750"/>
<feBlend mode="normal" in="SourceGraphic" in2="effect1_dropShadow_5_3750" result="shape"/>
</filter>
</defs>
</svg>
